name GIL03_free4.mot
datacolumns 153
datarows 4
range 0.13333334 0.15833333
endheader

                time	           pelvis_tx	           pelvis_ty	           pelvis_tz	         pelvis_tilt	         pelvis_list	     pelvis_rotation	       hip_flexion_r	     hip_adduction_r	      hip_rotation_r	        knee_angle_r	       ankle_angle_r	    subtalar_angle_r	         mtp_angle_r	       hip_flexion_l	     hip_adduction_l	      hip_rotation_l	        knee_angle_l	       ankle_angle_l	    subtalar_angle_l	         mtp_angle_l	    lumbar_extension	      lumbar_bending	     lumbar_rotation	     ground_force_vx	     ground_force_vy	     ground_force_vz	     ground_force_px	     ground_force_py	     ground_force_pz	     ground_force_vx	     ground_force_vy	     ground_force_vz	     ground_force_px	     ground_force_py	     ground_force_pz	     ground_torque_x	     ground_torque_y	     ground_torque_z	     ground_torque_x	     ground_torque_y	     ground_torque_z	    ground_marker_px	    ground_marker_py	    ground_marker_pz	    ground_marker_px	    ground_marker_py	    ground_marker_pz	    ground_marker_px	    ground_marker_py	    ground_marker_pz	    ground_marker_px	    ground_marker_py	    ground_marker_pz	    ground_marker_px	    ground_marker_py	    ground_marker_pz	    ground_marker_px	    ground_marker_py	    ground_marker_pz	    ground_marker_px	    ground_marker_py	    ground_marker_pz	    ground_marker_px	    ground_marker_py	    ground_marker_pz	    ground_marker_px	    ground_marker_py	    ground_marker_pz	    ground_marker_px	    ground_marker_py	    ground_marker_pz	    ground_marker_px	    ground_marker_py	    ground_marker_pz	    ground_marker_px	    ground_marker_py	    ground_marker_pz	    ground_marker_px	    ground_marker_py	    ground_marker_pz	    ground_marker_px	    ground_marker_py	    ground_marker_pz	    ground_marker_px	    ground_marker_py	    ground_marker_pz	    ground_marker_px	    ground_marker_py	    ground_marker_pz	    ground_marker_px	    ground_marker_py	    ground_marker_pz	    ground_marker_px	    ground_marker_py	    ground_marker_pz	    ground_marker_px	    ground_marker_py	    ground_marker_pz	    ground_marker_px	    ground_marker_py	    ground_marker_pz	    ground_marker_px	    ground_marker_py	    ground_marker_pz	    ground_marker_px	    ground_marker_py	    ground_marker_pz	    ground_marker_px	    ground_marker_py	    ground_marker_pz	    ground_marker_px	    ground_marker_py	    ground_marker_pz	    ground_marker_px	    ground_marker_py	    ground_marker_pz	    ground_marker_px	    ground_marker_py	    ground_marker_pz	    ground_marker_px	    ground_marker_py	    ground_marker_pz	    ground_marker_px	    ground_marker_py	    ground_marker_pz	    ground_marker_px	    ground_marker_py	    ground_marker_pz	    ground_marker_px	    ground_marker_py	    ground_marker_pz	    ground_marker_px	    ground_marker_py	    ground_marker_pz	    ground_marker_px	    ground_marker_py	    ground_marker_pz	    ground_marker_px	    ground_marker_py	    ground_marker_pz	    ground_marker_px	    ground_marker_py	    ground_marker_pz	    ground_marker_px	    ground_marker_py	    ground_marker_pz	    ground_marker_px	    ground_marker_py	    ground_marker_pz	    ground_marker_px	    ground_marker_py	    ground_marker_pz	
          0.13333334	          0.04105748	          0.87407255	         -0.23622879	          4.38802910	         -4.13805342	          5.49026060	         20.07230377	          3.04408455	          3.34650135	        -24.69893456	          1.62376809	          0.00000000	          0.00000000	         -7.04190016	        -12.25739765	         -6.32064772	        -50.50401306	         -9.28854370	          0.00000000	          0.00000000	        -23.18863678	          5.96361017	         -0.79265523	        -84.37948413	        489.59959938	        -10.28735138	          0.15943430	          0.00000000	         -0.17967406	          0.00000000	          0.00000000	          0.00000000	          0.56659845	          0.00000000	         -0.29025311	          0.00000000	         -0.68591058	          0.00000000	          0.00000000	          0.00000000	          0.00000000	         -0.01641910	          0.80960429	         -0.22868046	         -0.00367084	          0.79608244	         -0.16798446	         -0.02566768	          0.78749841	         -0.28305867	          0.14861284	          0.45299697	         -0.18386213	         -0.05072892	          0.42133641	         -0.33820519	          0.14264819	          0.06278186	         -0.18918797	         -0.37619558	          0.18220003	         -0.32970580	          0.04105748	          0.87407255	         -0.23622879	          0.05142613	          0.87988770	         -0.13757658	          0.03068883	          0.86825746	         -0.33488101	         -0.11526302	          0.89749593	         -0.19230488	         -0.12124082	          0.89565647	         -0.24690694	          0.16362002	          0.45721719	         -0.13111772	         -0.05256271	          0.42957106	         -0.39204827	          0.13891941	          0.44565600	         -0.22689387	         -0.04345771	          0.40121809	         -0.29365441	          0.13918853	          0.06231144	         -0.15084662	         -0.37785929	          0.18309760	         -0.36815938	          0.16427886	          0.07389393	         -0.21940848	         -0.35499626	          0.17961431	         -0.30683103	         -0.04857299	          1.31307745	         -0.21154596	          0.04778350	          1.23009574	         -0.16801320	          0.04149242	          1.23394644	         -0.27606490	          0.03026574	          1.24469638	         -0.22607912	          0.07019269	          1.07362890	         -0.23331225	          0.20594940	          0.67048061	         -0.19482841	          0.10067212	          0.57778221	         -0.32638055	          0.12952694	          0.68264228	         -0.13062653	          0.02356403	          0.62878281	         -0.36743727	          0.15774266	          0.60187417	         -0.13498065	          0.01855945	          0.54143000	         -0.37335145	          0.14762117	          0.17920931	         -0.08005051	         -0.31046176	          0.28865340	         -0.43072358	          0.14738294	          0.18645677	         -0.12219951	         -0.29712465	          0.28028354	         -0.39186510	          0.25814697	          0.04027001	         -0.15309758	         -0.34455186	          0.06334089	         -0.33072594	
          0.14166667	          0.05094994	          0.87555480	         -0.23520416	          4.43365622	         -4.27111721	          5.54748249	         19.39092827	          3.32076073	          2.98912525	        -24.80308151	          2.29748440	          0.00000000	          0.00000000	         -5.54046869	        -12.39626122	         -5.80687332	        -52.90782166	         -9.33718491	          0.00000000	          0.00000000	        -23.34339523	          6.12173223	         -0.62687516	        -78.01115069	        486.87242612	         -9.55741784	          0.15872073	          0.00000000	         -0.17995468	          0.00000000	          0.00000000	          0.00000000	          0.57016437	          0.00000000	         -0.28964355	          0.00000000	         -0.65701758	          0.00000000	          0.00000000	          0.00000000	          0.00000000	         -0.00671926	          0.81086773	         -0.22744343	          0.00636643	          0.79768080	         -0.16673288	         -0.01577298	          0.78883106	         -0.28175965	          0.15447986	          0.45313284	         -0.18330869	         -0.03130359	          0.42183000	         -0.33801708	          0.14328168	          0.06291767	         -0.18930452	         -0.36036012	          0.18922538	         -0.33248374	          0.05094994	          0.87555480	         -0.23520416	          0.06144884	          0.88159549	         -0.13651350	          0.04045105	          0.86951405	         -0.33389482	         -0.10533287	          0.89905733	         -0.19128385	         -0.11146813	          0.89689052	         -0.24587438	          0.16936724	          0.45699215	         -0.13050270	         -0.03301760	          0.43015456	         -0.39185029	          0.14512843	          0.44627160	         -0.22672175	         -0.02493409	          0.40189451	         -0.29239982	          0.13927794	          0.06244425	         -0.15101619	         -0.36102015	          0.18924336	         -0.37097806	          0.16444805	          0.07386842	         -0.21951587	         -0.33930263	          0.18540464	         -0.30926901	         -0.03802997	          1.31465936	         -0.21083115	          0.05828625	          1.23146510	         -0.16753863	          0.05168096	          1.23544741	         -0.27557600	          0.04060604	          1.24613857	         -0.22558281	          0.08020951	          1.07502937	         -0.23308079	          0.21474454	          0.67005086	         -0.19337860	          0.11594762	          0.58112657	         -0.32501623	          0.13800940	          0.68293738	         -0.12954699	          0.03804018	          0.63052982	         -0.36636525	          0.16525438	          0.60190803	         -0.13405344	          0.03465586	          0.54313958	         -0.37216565	          0.14830309	          0.17922698	         -0.08020828	         -0.29059848	          0.29155850	         -0.43376353	          0.14775793	          0.18675463	         -0.12251047	         -0.27771002	          0.28329381	         -0.39509735	          0.25813282	          0.04026658	         -0.15321307	         -0.33068037	          0.06848091	         -0.33509848	
          0.15000001	          0.06064271	          0.87719691	         -0.23419127	          4.47034311	         -4.39080524	          5.57634735	         18.63424492	          3.60084271	          2.87212181	        -24.75486374	          2.94010663	          0.00000000	          0.00000000	         -4.03514433	        -12.45371628	         -5.03858900	        -55.18704987	         -8.87924290	          0.00000000	          0.00000000	        -23.47235489	          6.21851778	         -0.41810557	        -70.37167834	        480.28626737	         -9.15331043	          0.15761572	          0.00000000	         -0.18024417	          0.00000000	          0.00000000	          0.00000000	          0.57460577	          0.00000000	         -0.28912869	          0.00000000	         -0.62627600	          0.00000000	          0.00000000	          0.00000000	          0.00000000	          0.00278670	          0.81228554	         -0.22625479	          0.01615902	          0.79943359	         -0.16552959	         -0.00606382	          0.79033995	         -0.28052121	          0.15961972	          0.45322290	         -0.18273106	         -0.01198123	          0.42274097	         -0.33746925	          0.14362079	          0.06302761	         -0.18934418	         -0.34397739	          0.19594032	         -0.33519676	          0.06064271	          0.87719691	         -0.23419127	          0.07122201	          0.88344651	         -0.13544740	          0.05006340	          0.87094736	         -0.33293515	         -0.09561410	          0.90078300	         -0.19038334	         -0.10184711	          0.89830047	         -0.24497366	          0.17455545	          0.45678788	         -0.12991804	         -0.01331496	          0.43110296	         -0.39130741	          0.15084128	          0.44673672	         -0.22636220	         -0.00678833	          0.40322393	         -0.29030561	          0.13928378	          0.06255713	         -0.15109213	         -0.34361747	          0.19502780	         -0.37368429	          0.16454209	          0.07389428	         -0.21952608	         -0.32274586	          0.19064462	         -0.31177574	         -0.02758363	          1.31633711	         -0.21013470	          0.06867392	          1.23306203	         -0.16720335	          0.06169231	          1.23711514	         -0.27524370	          0.05083163	          1.24773359	         -0.22520597	          0.09014214	          1.07663238	         -0.23292336	          0.22289491	          0.66956842	         -0.19242182	          0.13103637	          0.58484685	         -0.32277167	          0.14602698	          0.68339014	         -0.12906738	          0.05267382	          0.63256931	         -0.36481881	          0.17236412	          0.60210383	         -0.13352203	          0.05090309	          0.54521149	         -0.37023884	          0.14915399	          0.17920400	         -0.08021569	         -0.27029812	          0.29423702	         -0.43657523	          0.14838852	          0.18694194	         -0.12255910	         -0.25795043	          0.28626710	         -0.39802355	          0.25802505	          0.04028810	         -0.15329681	         -0.31489053	          0.07361086	         -0.34030128	
          0.15833333	          0.07016924	          0.87898386	         -0.23317419	          4.49340296	         -4.50027418	          5.57175636	         17.81667519	          3.88766074	          2.98359108	        -24.58005524	          3.56607008	          0.00000000	          0.00000000	         -2.54132748	        -12.45330429	         -4.04347277	        -57.27594757	         -8.04303169	          0.00000000	          0.00000000	        -23.59218597	          6.28506088	         -0.18695426	        -62.47369839	        469.50935565	         -9.18109166	          0.15613837	          0.00000000	         -0.18052078	          0.00000000	          0.00000000	          0.00000000	          0.57991101	          0.00000000	         -0.28874722	          0.00000000	         -0.59801093	          0.00000000	          0.00000000	          0.00000000	          0.00000000	          0.01215593	          0.81386304	         -0.22505529	          0.02572905	          0.80133325	         -0.16435690	          0.00349033	          0.79201156	         -0.27932721	          0.16410980	          0.45329943	         -0.18211824	          0.00713268	          0.42406681	         -0.33664694	          0.14363578	          0.06312533	         -0.18932348	         -0.32695186	          0.20200947	         -0.33784017	          0.07016924	          0.87898386	         -0.23317419	          0.08077088	          0.88543075	         -0.13436905	          0.05956759	          0.87253702	         -0.33197933	         -0.08607619	          0.90266699	         -0.18960276	         -0.09233988	          0.89988667	         -0.24419932	          0.17925082	          0.45662659	         -0.12934819	          0.00642667	          0.43244830	         -0.39049396	          0.15580212	          0.44724739	         -0.22592285	          0.01139931	          0.40483764	         -0.28801057	          0.13922325	          0.06265064	         -0.15108012	         -0.32566178	          0.20027503	         -0.37627941	          0.16455133	          0.07393831	         -0.21948186	         -0.30525500	          0.19517763	         -0.31428292	         -0.01726892	          1.31816649	         -0.20952205	          0.07891943	          1.23479068	         -0.16704704	          0.07156160	          1.23889184	         -0.27518323	          0.06094173	          1.24946308	         -0.22494398	          0.09989987	          1.07834804	         -0.23294759	          0.23044562	          0.66903359	         -0.19190800	          0.14589129	          0.58891559	         -0.31973553	          0.15363494	          0.68397826	         -0.12879147	          0.06745978	          0.63491386	         -0.36276081	          0.17907374	          0.60246593	         -0.13321014	          0.06748630	          0.54761058	         -0.36777008	          0.15030271	          0.17911363	         -0.08006737	         -0.24981932	          0.29686135	         -0.43900809	          0.14972852	          0.18693313	         -0.12231972	         -0.23807546	          0.28931737	         -0.40038636	          0.25784037	          0.04032569	         -0.15334618	         -0.29722920	          0.07853384	         -0.34619081	
